<?xml version="1.0" encoding="UTF-8"?>
<svg width="165px" height="55px" viewBox="0 0 165 55" version="1.1" xmlns="http://www.w3.org/2000/svg" xmlns:xlink="http://www.w3.org/1999/xlink">
    <!-- Generator: Sketch 49.3 (51167) - http://www.bohemiancoding.com/sketch -->
    <title>Logo Desktop</title>
    <desc>Created with Sketch.</desc>
    <defs></defs>
    <g id="Logo-Desktop" stroke="none" stroke-width="1" fill="none" fill-rule="evenodd">
        <path d="M104.956801,38.1273908 L104.956801,28.4184535 C104.956801,26.4384274 104.966997,25.6605601 104.554931,24.6347529 C103.770732,22.8240942 101.85484,21.6158243 99.928753,21.6158243 C97.0978209,21.6158243 94.8641713,23.9502995 94.8641713,27.0460545 L94.8641713,38.1273908 L91.1946648,38.1273908 L91.1946648,27.6615388 C91.1946648,24.9656303 91.8318794,23.1235426 93.226105,21.3050266 C94.8250888,19.2595235 97.3493083,18.0364121 99.9202568,18.0364121 C102.887128,18.0364121 105.864195,19.7527839 107.45978,22.4094062 C108.193851,23.6351366 108.626308,25.5680192 108.626308,27.8509857 L108.626308,38.1273908 L104.956801,38.1273908 Z" id="Fill-1" fill="#DF0021"></path>
        <path d="M123.612746,21.6256022 C120.00781,21.6256022 117.289028,24.4498457 117.289028,28.1942601 C117.289028,31.5833523 120.16414,34.446009 123.568565,34.446009 C127.030765,34.446009 129.848103,31.5807332 129.848103,28.0580678 C129.848103,24.5109576 127.051156,21.6256022 123.612746,21.6256022 M123.568565,38.2017727 C118.150542,38.2017727 113.573642,33.6637765 113.573642,28.2911661 C113.573642,22.4986296 117.983167,17.9623794 123.614445,17.9623794 C129.075799,17.9623794 133.519309,22.5335507 133.519309,28.1514817 C133.519309,33.6934594 129.055408,38.2017727 123.568565,38.2017727" id="Fill-3" fill="#DF0021"></path>
        <polygon id="Fill-5" fill="#DF0021" points="82.019709 38.2170507 85.6892156 38.2170507 85.6892156 17.9479745 82.019709 17.9479745"></polygon>
        <polygon id="Fill-7" fill="#DF0021" points="65.4939305 38.2169634 56.0691017 17.9478872 60.4718298 17.9478872 66.5907893 32.300457 72.9238529 17.9478872 77.2654084 17.9478872 67.8150909 38.2169634"></polygon>
        <path d="M159.292685,28.1583787 C159.292685,36.0732447 157.279087,43.4939773 153.747219,49.9535067 C153.068373,51.1958246 153.959624,52.7288607 155.345353,52.7288607 C156.009756,52.7288607 156.626579,52.3604431 156.943488,51.7606733 C160.776121,44.4970857 162.962192,36.7454758 162.962192,28.1583787 C162.962192,19.457788 160.765926,11.1884728 156.920548,4.29330273 C156.591745,3.70488229 155.988515,3.43598986 155.328361,3.43598986 L155.305421,3.43598986 C153.919692,3.43598986 153.026742,4.86688171 153.705588,6.10919964 C157.262095,12.6141265 159.292685,20.1160506 159.292685,28.1583787" id="Fill-8" fill="#DF0021"></path>
        <path d="M7.4554895,28.2593879 C7.4554895,36.175127 9.46908766,43.5949865 13.0009558,50.0536429 C13.6806514,51.2959609 12.788551,52.8289969 11.4028216,52.8289969 C10.7384192,52.8289969 10.1207458,52.4614524 9.80468735,51.8616826 C5.97120427,44.598095 3.78598298,36.846485 3.78598298,28.2593879 C3.78598298,19.5587972 5.98139971,11.1882109 9.82762708,4.29304082 C10.1555802,3.70462038 10.7596596,3.33445678 11.419814,3.33445678 L11.4427537,3.33445678 C12.8284831,3.33445678 13.7214331,4.86749283 13.0425872,6.10893773 C9.48608005,12.6138646 7.4554895,20.2170599 7.4554895,28.2593879" id="Fill-9" fill="#DF0021"></path>
        <path d="M43.2610881,21.5953082 C45.7207365,21.5953082 47.8456348,22.9388973 48.8592308,25.2951981 L37.536352,25.2951981 C38.5261587,22.9388973 40.6595532,21.5953082 43.2610881,21.5953082 Z M53.1370649,29.0666763 C53.1549069,28.5952415 53.1676512,28.4712717 53.1676512,28.2198398 C53.1676512,22.6019087 48.7232917,17.9809749 43.2619377,17.9809749 C37.6315094,17.9809749 33.2211347,22.4927803 33.2211347,28.2853168 C33.2211347,33.6561811 37.7980348,38.182828 43.2169079,38.182828 C47.1676384,38.182828 50.5882064,35.8387495 52.1931376,32.4610067 L48.6587206,31.2012282 C47.5737565,33.1175233 45.543166,34.415715 43.2169079,34.415715 C40.1200449,34.415715 37.4692321,31.8944119 37.0129864,29.0666763 L53.1370649,29.0666763 Z" id="Fill-10" fill="#DF0021"></path>
    </g>
</svg>